<svg class="icon" style="width: 1em; height: 1em;vertical-align: middle;fill: currentColor;overflow: hidden;" viewBox="0 0 1024 1024" version="1.1" xmlns="http://www.w3.org/2000/svg"><path d="M574.451014 409.444333a28.439893 28.439893 0 0 0 0 40.227548c59.614194 59.624435 59.614194 156.619114 0 216.243549L317.949194 922.41725c-59.624435 59.655159-156.629356 59.655159-216.253791 0a152.932272 152.932272 0 0 1 0-216.274273l128.250911-128.220186a28.450134 28.450134 0 1 0-40.227548-40.227548L61.447374 665.91543a209.822299 209.822299 0 0 0 296.729367 296.698644L614.678561 706.153218c81.806937-81.796696 81.806937-214.912189 0-296.708885a28.439893 28.439893 0 0 0-40.227547 0zM962.777933 61.385926c-81.765972-81.817178-214.901948-81.847902-296.719126 0L409.556987 317.83654c-81.806937 81.796696-81.806937 214.912189 0 296.708885a28.450134 28.450134 0 0 0 40.227547-40.227547c-59.593711-59.624435-59.593711-156.619114 0-216.243549L706.286354 101.572509c59.624435-59.644917 156.629356-59.644917 216.253791 0s59.593711 156.690803 0 216.274273l-128.25091 128.220186a28.450134 28.450134 0 0 0 40.227547 40.227547l128.261151-128.220186c81.827419-81.827419 81.827419-214.942913 0-296.688403z" /></svg>